<?xml version="1.0" standalone="no"?>
<!DOCTYPE svg PUBLIC "-//W3C//DTD SVG 20010904//EN"
 "http://www.w3.org/TR/2001/REC-SVG-20010904/DTD/svg10.dtd">
<svg version="1.0" xmlns="http://www.w3.org/2000/svg"
 width="700.000000pt" height="700.000000pt" viewBox="0 0 700.000000 700.000000"
 preserveAspectRatio="xMidYMid meet">
<metadata>
Created by potrace 1.11, written by Peter Selinger 2001-2013
</metadata>
<g transform="translate(0.000000,700.000000) scale(0.100000,-0.100000)"
fill="#000000" stroke="none">
<path d="M0 4200 l0 -2800 833 0 832 -1 62 -77 c179 -222 520 -643 553 -682
34 -41 357 -439 433 -535 18 -21 45 -54 61 -72 l28 -33 2099 0 2099 0 0 2800
0 2800 -1852 0 -1853 0 -150 176 c-82 97 -154 182 -160 188 -5 6 -35 40 -65
76 -30 35 -65 76 -77 90 -49 57 -67 77 -106 124 -23 27 -139 162 -257 301
-118 138 -234 273 -257 301 -23 27 -51 60 -63 74 -12 14 -30 35 -41 48 l-19
22 -1050 0 -1050 0 0 -2800z m1400 0 l0 -2100 -350 0 -350 0 0 2100 0 2100
350 0 350 0 0 -2100z m910 1480 c215 -253 271 -319 285 -334 6 -6 35 -41 65
-76 30 -36 57 -67 60 -70 3 -3 22 -26 43 -51 l37 -46 -2 -1997 -3 -1998 -65
83 c-36 45 -70 87 -76 93 -12 12 -168 204 -382 471 -75 94 -145 179 -154 189
-17 19 -18 126 -18 2000 0 1675 2 1978 14 1966 7 -8 96 -112 196 -230z m3990
-2880 l0 -2100 -1400 0 -1400 0 0 2100 0 2100 1400 0 1400 0 0 -2100z"/>
</g>
</svg>
